<svg width="36" height="36" viewBox="0 0 36 36" fill="none" xmlns="http://www.w3.org/2000/svg">
<path d="M36 15V21C36 22.6547 34.6547 24 33 24H32.1832C31.0359 30.7992 25.1215 36 18 36C17.3367 36 16.8 35.4633 16.8 34.8C16.8 34.1367 17.3367 33.6 18 33.6C24.6164 33.6 30 28.2164 30 21.6V14.4C30 7.78359 24.6164 2.4 18 2.4C11.3836 2.4 6 7.78359 6 14.4V22.8C6 23.4633 5.46328 24 4.8 24H3C1.34531 24 0 22.6547 0 21V15C0 13.3453 1.34531 12 3 12H3.8168C4.96406 5.20078 10.8785 0 18 0C25.1215 0 31.0359 5.20078 32.1832 12H33C34.6547 12 36 13.3453 36 15ZM18 4.8C12.7066 4.8 8.4 9.10664 8.4 14.4V20.4C8.4 25.6934 12.7066 30 18 30C23.2934 30 27.6 25.6934 27.6 20.4V14.4C27.6 9.10664 23.2934 4.8 18 4.8Z" fill="white"/>
</svg>
