<svg width="32" height="36" viewBox="0 0 32 36" fill="none" xmlns="http://www.w3.org/2000/svg">
<path d="M8.22473 19.8514V18.3079C8.22372 18.1922 8.1916 18.079 8.13175 17.98C8.0719 17.8811 7.98652 17.8001 7.88457 17.7455C7.78262 17.6909 7.66786 17.6647 7.55232 17.6698C7.43678 17.6748 7.32472 17.7108 7.22791 17.7741L0.713199 22.1151C0.625382 22.1737 0.553384 22.2531 0.503589 22.3462C0.453794 22.4394 0.427739 22.5433 0.427734 22.6489C0.427729 22.7545 0.453774 22.8585 0.50356 22.9516C0.553346 23.0447 0.625336 23.1241 0.713148 23.1827L7.22791 27.5237C7.32471 27.587 7.43677 27.6231 7.55232 27.6281C7.66787 27.6332 7.78265 27.6071 7.88462 27.5525C7.98658 27.4979 8.07197 27.4168 8.13181 27.3179C8.19166 27.2189 8.22375 27.1056 8.22473 26.99V25.4979C9.53827 25.6725 10.7426 26.3213 11.6109 27.3223C12.4792 28.3233 12.9515 29.6072 12.9388 30.9323V35.3569C12.9393 35.5273 13.0072 35.6906 13.1277 35.8111C13.2482 35.9316 13.4115 35.9995 13.5819 36H18.4181C18.5885 35.9995 18.7518 35.9316 18.8723 35.8111C18.9928 35.6906 19.0607 35.5273 19.0612 35.3569V30.7393C18.9001 27.9129 17.7082 25.2436 15.7111 23.237C13.714 21.2304 11.0504 20.0259 8.22473 19.8514Z" fill="white"/>
<path d="M31.2869 12.9121L24.7721 8.57112C24.6768 8.50484 24.5647 8.46668 24.4487 8.46099C24.3327 8.45531 24.2175 8.48233 24.1161 8.53898C24.0127 8.59276 23.9261 8.67407 23.866 8.77394C23.8058 8.87381 23.7745 8.98835 23.7753 9.10493V10.6484C21.7838 10.7637 19.8564 11.3946 18.1822 12.4792C16.508 13.5638 15.1444 15.0648 14.225 16.8352C13.733 17.7796 13.3758 18.7884 13.1639 19.832C13.3511 19.9288 13.7532 20.1217 13.9292 20.2437C16.0589 21.4584 17.792 23.263 18.9197 25.44C18.9712 25.5365 19.0162 25.633 19.0612 25.7294V21.7228C19.0507 20.3984 19.5238 19.1156 20.3917 18.1151C21.2596 17.1146 22.4627 16.4652 23.7753 16.2885V17.7869C23.7763 17.9026 23.8084 18.0159 23.8682 18.1148C23.9281 18.2138 24.0134 18.2949 24.1154 18.3495C24.2174 18.4041 24.3322 18.4302 24.4477 18.4252C24.5633 18.4201 24.6753 18.3841 24.7721 18.3208L31.2869 13.9797C31.3747 13.9211 31.4467 13.8417 31.4965 13.7486C31.5463 13.6555 31.5723 13.5515 31.5723 13.4459C31.5723 13.3403 31.5463 13.2364 31.4965 13.1433C31.4467 13.0502 31.3747 12.9708 31.2869 12.9121Z" fill="white"/>
<path d="M11.4661 7.65147H12.9388V16.5393C14.2232 13.886 16.3865 11.759 19.0612 10.5198V7.65147H20.534C20.6519 7.65111 20.7676 7.61858 20.8684 7.55739C20.9693 7.4962 21.0515 7.40866 21.1063 7.3042C21.1595 7.19891 21.1833 7.08128 21.1754 6.96361C21.1675 6.84594 21.1281 6.73257 21.0613 6.63534L16.5274 0.25563C16.4645 0.175948 16.3844 0.111551 16.2931 0.067276C16.2017 0.0230013 16.1015 0 16 0C15.8985 0 15.7983 0.0230013 15.707 0.067276C15.6157 0.111551 15.5355 0.175948 15.4727 0.25563L10.9388 6.63534C10.8726 6.73233 10.8339 6.84544 10.8268 6.96265C10.8198 7.07986 10.8446 7.19679 10.8987 7.30101C10.9528 7.40524 11.0341 7.49286 11.134 7.55457C11.2339 7.61628 11.3486 7.64977 11.4661 7.65147Z" fill="white"/>
</svg>
