<svg width="617" height="312" viewBox="0 0 617 312" fill="none" xmlns="http://www.w3.org/2000/svg">
<g opacity="0.1">
<path d="M256.832 90.2735C285.609 90.541 315.146 97.0028 344.883 106.084C358.219 110.156 372.392 115.038 387.327 120.525C412.896 129.919 440.696 141.085 470.347 152.994L470.365 153.002C499.178 164.574 529.738 176.848 561.696 188.88C566.111 190.542 570.452 192.082 574.719 193.505C649.567 218.458 701.656 207.236 734.275 185.451C768.713 162.452 787.853 123.628 788.95 84.1416C788.983 82.9441 789 81.746 789 80.5477C789 46.2977 782.852 19.0763 772.766 -2.54568C770.314 -7.80305 767.628 -12.7294 764.742 -17.3452C757.122 -29.5319 748.101 -39.5541 738.263 -47.79C708.214 -72.9468 665.652 -85.4724 618.451 -85.4724C577.494 -85.4724 521.868 -70.0004 463.672 -44.3831C435.836 -32.1301 407.412 -17.5562 379.724 -1.24404C337.769 23.4729 299.397 51.0874 269.401 78.3713C264.964 82.4064 260.775 86.3769 256.832 90.2735Z" fill="white"/>
<path fill-rule="evenodd" clip-rule="evenodd" d="M331.979 -100.752C187.037 -162.501 15.4977 -67.7123 1.52629 70.2054C-16.1336 244.533 122.726 312 248.771 312C326.468 312 433.36 273.439 530.666 219.425C506.382 210.103 483.558 200.979 462.054 192.338C460.71 191.798 459.371 191.26 458.038 190.724L452.919 188.665C379.365 159.085 321.551 135.835 273.5 130.837C254.365 128.847 236.778 129.751 220.362 134.302L220.134 134.366C218.13 134.926 216.142 135.541 214.172 136.211C208.282 138.216 202.542 140.72 196.933 143.76C195.584 144.492 194.242 145.254 192.908 146.048C184.171 151.246 165.076 162.637 165.076 162.637C165.076 162.637 173.686 140.002 175.538 135.319C176.9 131.876 178.481 128.387 180.27 124.86C180.452 124.501 180.637 124.141 180.823 123.781C183.339 118.925 186.246 113.997 189.516 109.012C189.597 108.888 189.679 108.764 189.761 108.64C191.413 106.133 193.157 103.613 194.989 101.081C196.893 98.449 198.892 95.8045 200.983 93.1495C244.587 37.7637 327.838 -22.1659 414.73 -65.1784C406.133 -68.8734 397.371 -72.6524 388.438 -76.5051L388.412 -76.5166C370.318 -84.3204 351.521 -92.427 331.979 -100.752Z" fill="white"/>
</g>
</svg>
