<svg width="32" height="36" viewBox="0 0 32 36" fill="none" xmlns="http://www.w3.org/2000/svg">
<path d="M31.1111 9.26637C31.068 8.31928 31.068 7.41525 31.068 6.51121C31.068 5.77937 30.5084 5.21973 29.7766 5.21973C24.3954 5.21973 20.3057 3.66996 16.9048 0.355157C16.3882 -0.118386 15.6133 -0.118386 15.0967 0.355157C11.6958 3.66996 7.60616 5.21973 2.22499 5.21973C1.49315 5.21973 0.933512 5.77937 0.933512 6.51121C0.933512 7.41525 0.933512 8.31928 0.890462 9.26637C0.718265 18.3067 0.459969 30.7049 15.5703 35.9139L16.0008 36L16.4313 35.9139C31.4985 30.7049 31.2833 18.3498 31.1111 9.26637ZM14.9676 21.7937C14.7093 22.009 14.408 22.1381 14.0636 22.1381H14.0205C13.6761 22.1381 13.3317 21.9659 13.1165 21.7076L9.11288 17.2735L11.0501 15.5516L14.1927 19.0386L21.1667 12.409L22.9317 14.3031L14.9676 21.7937Z" fill="white"/>
</svg>
