<svg width="36" height="36" viewBox="0 0 36 36" fill="none" xmlns="http://www.w3.org/2000/svg">
<path d="M34.1336 16.1388C33.3388 16.1403 32.6334 16.6481 32.3797 17.4013C32.3447 17.3906 32.3088 17.3834 32.2724 17.3796H29.1704C29.1592 17.3796 29.1505 17.3852 29.1393 17.3858C29.0036 14.8552 28.0065 12.4471 26.3134 10.5614C26.3215 10.554 26.332 10.5515 26.3401 10.5434L28.9141 7.96876C28.991 7.88803 29.0438 7.78749 29.0668 7.67841C30.1328 8.36638 31.5461 8.13941 32.3432 7.15225C33.1402 6.16509 33.0643 4.7357 32.1671 3.83854C31.27 2.94139 29.8406 2.86545 28.8534 3.6625C27.8662 4.45954 27.6393 5.87284 28.3272 6.9389C28.2182 6.96181 28.1176 7.01466 28.0369 7.09151L25.4622 9.66617C25.4548 9.67424 25.4523 9.68478 25.4449 9.69285C23.5592 7.99957 21.1512 7.00218 18.6205 6.86631C18.6205 6.85514 18.6267 6.84646 18.6267 6.83529V3.73081C18.6229 3.69442 18.6156 3.65847 18.605 3.62348C19.4674 3.3305 19.9911 2.45643 19.8426 1.5578C19.6941 0.659166 18.9171 0 18.0063 0C17.0955 0 16.3184 0.659166 16.17 1.5578C16.0215 2.45643 16.5452 3.3305 17.4076 3.62348C17.3959 3.65837 17.3875 3.69431 17.3828 3.73081V6.83281C17.3828 6.84398 17.3884 6.85266 17.389 6.86383C14.8572 6.99901 12.4479 7.99643 10.5615 9.69037C10.554 9.6823 10.5516 9.67176 10.5441 9.66369L7.96945 7.08903C7.88872 7.01218 7.78818 6.95933 7.6791 6.93641C8.36707 5.87036 8.1401 4.45706 7.15294 3.66001C6.16578 2.86297 4.73639 2.93891 3.83923 3.83606C2.94208 4.73322 2.86614 6.16261 3.66319 7.14977C4.46023 8.13693 5.87353 8.36389 6.93959 7.67593C6.9625 7.78501 7.01535 7.88555 7.09221 7.96628L9.66624 10.5409C9.67431 10.549 9.68486 10.5515 9.69292 10.5589C7.99986 12.4446 7.0027 14.8527 6.867 17.3833C6.85583 17.3833 6.84715 17.3771 6.83598 17.3771H3.73398C3.69759 17.3809 3.66165 17.3882 3.62665 17.3988C3.33367 16.5364 2.4596 16.0127 1.56097 16.1612C0.662339 16.3097 0.00317329 17.0867 0.00317329 17.9975C0.00317329 18.9083 0.662339 19.6853 1.56097 19.8338C2.4596 19.9823 3.33367 19.4586 3.62665 18.5962C3.66156 18.6077 3.69751 18.6158 3.73398 18.6204H6.83598C6.84715 18.6204 6.85583 18.6148 6.867 18.6142C7.0027 21.1448 7.99986 23.5529 9.69292 25.4386C9.68486 25.446 9.67431 25.4485 9.66624 25.4566L7.09221 28.0312C7.01535 28.112 6.9625 28.2125 6.93959 28.3216C5.87353 27.6336 4.46023 27.8606 3.66319 28.8477C2.86614 29.8349 2.94208 31.2643 3.83923 32.1615C4.73639 33.0586 6.16578 33.1345 7.15294 32.3375C8.1401 31.5405 8.36707 30.1272 7.6791 29.0611C7.78818 29.0382 7.88872 28.9853 7.96945 28.9085L10.5441 26.3338C10.5516 26.3258 10.554 26.3152 10.5615 26.3071C12.4476 28.002 14.8569 29.0003 17.389 29.1362C17.389 29.1473 17.3828 29.156 17.3828 29.1672V32.2692C17.3865 32.3056 17.3938 32.3415 17.4045 32.3765C16.5421 32.6695 16.0184 33.5436 16.1669 34.4422C16.3153 35.3408 17.0924 36 18.0032 36C18.914 36 19.691 35.3408 19.8395 34.4422C19.988 33.5436 19.4643 32.6695 18.6019 32.3765C18.6125 32.3415 18.6198 32.3056 18.6236 32.2692V29.1672C18.6236 29.156 18.618 29.1473 18.6174 29.1362C21.1502 29.0017 23.5607 28.0042 25.448 26.3096C25.4554 26.3177 25.4579 26.3282 25.4653 26.3363L28.04 28.911C28.1207 28.9878 28.2213 29.0407 28.3303 29.0636C27.6424 30.1296 27.8693 31.5429 28.8565 32.34C29.8437 33.137 31.2731 33.0611 32.1702 32.1639C33.0674 31.2668 33.1433 29.8374 32.3463 28.8502C31.5492 27.8631 30.1359 27.6361 29.0699 28.3241C29.0469 28.215 28.9941 28.1144 28.9172 28.0337L26.3432 25.4591C26.3351 25.451 26.3246 25.4485 26.3165 25.4411C28.0096 23.5554 29.0067 21.1473 29.1424 18.6167C29.1536 18.6167 29.1623 18.6229 29.1735 18.6229H32.2755C32.3119 18.6191 32.3478 18.6118 32.3828 18.6012C32.6913 19.4968 33.6242 20.0168 34.5482 19.8081C35.4722 19.5994 36.0911 18.7289 35.9847 17.7877C35.8784 16.8465 35.0808 16.136 34.1336 16.1388Z" fill="white"/>
</svg>
