<svg width="54" height="40" viewBox="0 0 54 40" fill="none" xmlns="http://www.w3.org/2000/svg">
<path d="M53.9952 31.0734C53.8687 24.0437 53.0365 16.935 51.6718 9.76008C50.5601 4.77507 46.5608 0.335184 40.1706 0.0100064C35.453 -0.183627 34.5407 2.49777 29.1956 2.44621C27.7317 2.43674 26.2689 2.43674 24.805 2.44621C19.4589 2.49777 18.5445 -0.183627 13.829 0.0100064C7.4377 0.335184 3.31393 4.76349 2.32359 9.76008C0.957788 16.935 0.12565 24.0426 0.000144161 31.0724C-0.0304414 35.9669 4.81262 39.2229 8.00828 39.446C14.1813 39.9111 19.0855 29.0497 22.8222 29.0487C25.6076 29.0645 28.392 29.0655 31.1773 29.0487C34.9151 29.0487 39.8151 39.9122 45.9923 39.447C49.187 39.2239 54.1555 35.9458 53.9963 31.0734H53.9952ZM20.1339 17.357H17.2546V20.23C17.2546 21.4423 16.2695 22.4252 15.0546 22.4252C13.8396 22.4252 12.8545 21.4423 12.8545 20.23V17.357H9.97525C8.76026 17.357 7.7752 16.3741 7.7752 15.1618C7.7752 13.9495 8.76026 12.9666 9.97525 12.9666H12.8545V10.0937C12.8545 8.88136 13.8396 7.89846 15.0546 7.89846C16.2695 7.89846 17.2546 8.88136 17.2546 10.0937V12.9666H20.1339C21.3488 12.9666 22.3339 13.9495 22.3339 15.1618C22.3339 16.3741 21.3488 17.357 20.1339 17.357ZM37.9125 22.4241C36.1902 22.4704 34.758 21.1129 34.7116 19.3954C34.6662 17.6717 36.0278 16.2405 37.749 16.1963C39.4724 16.1531 40.9067 17.5096 40.951 19.2292C40.9943 20.9487 39.6348 22.3799 37.9125 22.4241ZM43.1068 14.1263C41.3845 14.1747 39.9491 12.8161 39.9016 11.0976C39.8584 9.37597 41.2178 7.94687 42.9412 7.89951C44.6666 7.85426 46.0989 9.21285 46.1453 10.9324C46.1906 12.6509 44.828 14.0832 43.1068 14.1263Z" fill="#D6D6D6"/>
</svg>
