<svg width="56" height="54" viewBox="0 0 56 54" fill="none" xmlns="http://www.w3.org/2000/svg">
<path d="M2.32819 3.23788e-07C1.04237 3.23788e-07 0 1.05116 0 2.34783C0 3.6445 1.04237 4.69565 2.32819 4.69565H6.47073C6.8097 4.69565 7.14009 4.80321 7.41507 5.00309C7.69006 5.20298 7.8957 5.48505 8.00288 5.80935L15.6789 29.036C16.0198 30.0673 16.0631 31.1776 15.8017 32.2322L15.1696 34.7863C14.2422 38.5273 17.1298 42.2609 20.9537 42.2609H48.892C50.1778 42.2609 51.2202 41.2097 51.2202 39.913C51.2202 38.6164 50.1778 37.5652 48.892 37.5652H20.9537C20.0471 37.5652 19.4651 36.8151 19.685 35.9282L20.1617 34.0083C20.2424 33.683 20.4287 33.3943 20.6908 33.188C20.953 32.9816 21.276 32.8696 21.6085 32.8696H46.5638C47.5662 32.8701 48.4565 32.2235 48.7737 31.2646L54.9807 12.482C55.4835 10.9611 54.3605 9.39057 52.7708 9.3913H15.2606C14.9216 9.3913 14.5912 9.28375 14.3162 9.08387C14.0412 8.88399 13.8355 8.60193 13.7283 8.27763L11.5227 1.60496C11.2055 0.646015 10.3152 -0.000528195 9.31276 3.23788e-07H2.32819ZM18.6255 44.6087C16.0539 44.6087 13.9691 46.711 13.9691 49.3043C13.9691 51.8977 16.0539 54 18.6255 54C21.1972 54 23.2819 51.8977 23.2819 49.3043C23.2819 46.711 21.1972 44.6087 18.6255 44.6087ZM46.5638 44.6087C43.9921 44.6087 41.9074 46.711 41.9074 49.3043C41.9074 51.8977 43.9921 54 46.5638 54C49.1354 54 51.2202 51.8977 51.2202 49.3043C51.2202 46.711 49.1354 44.6087 46.5638 44.6087Z" fill="#D6D6D6"/>
</svg>
