<svg width="73" height="40" viewBox="0 0 73 40" fill="none" xmlns="http://www.w3.org/2000/svg">
<path d="M23.7513 19.4698C26.4125 19.4945 29.1441 20.0929 31.8941 20.9337C33.1274 21.3108 34.4381 21.7628 35.8192 22.2708C38.1838 23.1406 40.7547 24.1745 43.4968 25.2772L43.4984 25.2779C46.163 26.3495 48.9891 27.486 51.9445 28.6C52.3528 28.7539 52.7543 28.8965 53.1488 29.0282C60.0707 31.3387 64.8878 30.2996 67.9043 28.2825C71.089 26.1529 72.8591 22.5581 72.9605 18.902C72.9636 18.7911 72.9651 18.6802 72.9651 18.5692C72.9651 15.3979 72.3966 12.8774 71.4638 10.8754C71.2371 10.3886 70.9887 9.93247 70.7218 9.50508C70.0171 8.37668 69.1829 7.44869 68.2731 6.68611C65.4942 4.35678 61.5582 3.197 57.1931 3.197C53.4055 3.197 48.2613 4.62959 42.8794 7.00157C40.3052 8.1361 37.6767 9.48554 35.1161 10.9959C31.2362 13.2845 27.6877 15.8414 24.9136 18.3677C24.5034 18.7413 24.116 19.109 23.7513 19.4698Z" fill="#1E1E1E"/>
<path fill-rule="evenodd" clip-rule="evenodd" d="M30.7008 1.78218C17.2968 -3.93524 1.4332 4.84146 0.141149 17.6116C-1.492 33.7531 11.3494 40 23.0059 40C30.1911 40 40.0763 36.4296 49.0749 31.4283C46.8292 30.5651 44.7185 29.7203 42.7299 28.9202C42.6056 28.8702 42.4818 28.8204 42.3584 28.7707L41.885 28.5801C35.0829 25.8412 29.7364 23.6884 25.2927 23.2256C23.5232 23.0414 21.8968 23.1251 20.3787 23.5465L20.3576 23.5524C20.1722 23.6042 19.9884 23.6612 19.8062 23.7233C19.2615 23.9089 18.7307 24.1408 18.212 24.4222C18.0872 24.49 17.9631 24.5606 17.8397 24.6341C17.0318 25.1154 15.2659 26.17 15.2659 26.17C15.2659 26.17 16.0621 24.0743 16.2334 23.6406C16.3594 23.3218 16.5056 22.9988 16.671 22.6722C16.6879 22.639 16.7049 22.6057 16.7222 22.5723C16.9548 22.1227 17.2236 21.6663 17.526 21.2049C17.5336 21.1933 17.5411 21.1818 17.5487 21.1703C17.7015 20.9383 17.8628 20.7049 18.0322 20.4704C18.2083 20.2268 18.3932 19.9819 18.5865 19.7361C22.6189 14.6078 30.3178 9.05871 38.3534 5.07607C37.5584 4.73394 36.7481 4.38404 35.922 4.0273L35.9195 4.02624C34.2462 3.30367 32.508 2.55305 30.7008 1.78218Z" fill="#1E1E1E"/>
</svg>
