<svg width="28" height="28" viewBox="0 0 28 28" fill="none" xmlns="http://www.w3.org/2000/svg">
<path d="M28 28V17.745C28 12.705 26.915 8.855 21.035 8.855C18.2 8.855 16.31 10.395 15.54 11.865H15.47V9.31H9.905V28H15.715V18.725C15.715 16.275 16.17 13.93 19.18 13.93C22.155 13.93 22.19 16.695 22.19 18.865V27.965H28V28Z" fill="#FD7B03"/>
<path d="M0.455 9.31H6.265V28H0.455V9.31Z" fill="#FD7B03"/>
<path d="M3.36 0C1.505 0 0 1.505 0 3.36C0 5.215 1.505 6.755 3.36 6.755C5.215 6.755 6.72 5.215 6.72 3.36C6.72 1.505 5.215 0 3.36 0Z" fill="#FD7B03"/>
</svg>
