<svg width="260" height="51" viewBox="0 0 260 51" fill="none" xmlns="http://www.w3.org/2000/svg">
<path d="M30.0832 24.6603C33.4539 24.6916 36.9137 25.4495 40.3968 26.5145C41.9589 26.9921 43.619 27.5646 45.3683 28.2081C48.3633 29.3098 51.6196 30.6193 55.0927 32.016L55.0948 32.0168C58.4697 33.374 62.0492 34.8135 65.7925 36.2246C66.3097 36.4195 66.8181 36.6001 67.3179 36.7669C76.0851 39.6933 82.1864 38.3772 86.007 35.8224C90.0408 33.1251 92.2828 28.572 92.4112 23.9411C92.4151 23.8007 92.4171 23.6602 92.4171 23.5196C92.4171 19.5029 91.6969 16.3105 90.5156 13.7747C90.2283 13.1581 89.9138 12.5804 89.5757 12.0391C88.6832 10.6098 87.6265 9.43446 86.4742 8.46858C82.9544 5.51826 77.9691 4.04929 72.4403 4.04929C67.643 4.04929 61.1274 5.8638 54.3108 8.86813C51.0503 10.3051 47.721 12.0143 44.4778 13.9274C39.5635 16.8261 35.069 20.0646 31.5554 23.2644C31.0358 23.7376 30.5451 24.2033 30.0832 24.6603Z" fill="#FD7B03"/>
<path fill-rule="evenodd" clip-rule="evenodd" d="M38.8853 2.25729C21.908 -4.98435 1.81528 6.13215 0.178778 22.3067C-1.88976 42.7514 14.3751 50.6637 29.1391 50.6637C38.2399 50.6637 50.7603 46.1414 62.1579 39.8068C59.3135 38.7135 56.6401 37.6435 54.1213 36.6301C53.9639 36.5668 53.8071 36.5037 53.6508 36.4408L53.0512 36.1994C44.4357 32.7303 37.6639 30.0035 32.0356 29.4174C29.7943 29.184 27.7343 29.29 25.8115 29.8238L25.7847 29.8313C25.5499 29.897 25.3172 29.9691 25.0864 30.0477C24.3965 30.2828 23.7241 30.5765 23.0672 30.933C22.9091 31.0188 22.752 31.1082 22.5957 31.2013C21.5724 31.8109 19.3356 33.1468 19.3356 33.1468C19.3356 33.1468 20.3442 30.4923 20.5612 29.9431C20.7207 29.5393 20.9058 29.1301 21.1154 28.7165C21.1367 28.6743 21.1583 28.6322 21.1802 28.5899C21.4748 28.0204 21.8153 27.4424 22.1983 26.8579C22.2079 26.8433 22.2174 26.8288 22.227 26.8142C22.4206 26.5202 22.6249 26.2247 22.8395 25.9277C23.0625 25.6191 23.2966 25.3089 23.5415 24.9976C28.6489 18.5021 38.4003 11.4737 48.5781 6.42932C47.5712 5.99598 46.5449 5.55279 45.4985 5.10095L45.4954 5.09961C43.376 4.1844 41.1744 3.23368 38.8853 2.25729Z" fill="#FD7B03"/>
<path d="M246.75 33.8834V25.2627L238.029 9.0611H242.993L248.998 20.6337L255.002 9.0611H260L251.279 25.2627V33.8834H246.75Z" fill="#1E1E1E"/>
<path d="M225.648 34.2188C223.569 34.2188 221.757 33.861 220.214 33.1454C218.671 32.4298 217.385 31.4683 216.357 30.2607C215.351 29.0307 214.59 27.6666 214.076 26.1684C213.584 24.6477 213.338 23.0935 213.338 21.5058C213.338 19.9181 213.584 18.3639 214.076 16.8432C214.59 15.3226 215.362 13.9585 216.39 12.7509C217.419 11.521 218.716 10.5482 220.281 9.83261C221.847 9.09465 223.669 8.72567 225.749 8.72567C227.382 8.72567 228.779 8.93811 229.942 9.363C231.127 9.76552 232.111 10.291 232.894 10.9395C233.699 11.5881 234.336 12.2813 234.806 13.0193C235.298 13.7348 235.667 14.4169 235.913 15.0654C236.159 15.7139 236.326 16.2506 236.416 16.6755C236.505 17.078 236.55 17.2793 236.55 17.2793H231.988C231.988 17.2793 231.943 17.1339 231.854 16.8432C231.787 16.5302 231.63 16.15 231.384 15.7027C231.138 15.2555 230.781 14.8082 230.311 14.361C229.864 13.9138 229.271 13.5448 228.533 13.2541C227.795 12.941 226.878 12.7844 225.783 12.7844C224.463 12.7844 223.312 13.0304 222.328 13.5224C221.366 14.0144 220.561 14.6741 219.912 15.5015C219.264 16.3289 218.783 17.2569 218.47 18.2856C218.157 19.3143 218 20.3653 218 21.4387C218 22.8923 218.291 24.2899 218.873 25.6317C219.454 26.9734 220.315 28.0692 221.455 28.9189C222.618 29.7687 224.049 30.1936 225.749 30.1936C227.717 30.1936 229.271 29.6569 230.412 28.5835C231.574 27.5101 232.234 26.0789 232.391 24.2899H225.615V20.6672H236.818V22.5121C236.818 25.0838 236.326 27.2418 235.343 28.986C234.359 30.7079 233.017 32.0161 231.317 32.9106C229.64 33.7828 227.75 34.2188 225.648 34.2188Z" fill="#1E1E1E"/>
<path d="M192.811 33.8834V9.0611H202.472C204.261 9.0611 205.781 9.39654 207.034 10.0674C208.308 10.7159 209.27 11.6104 209.918 12.7509C210.589 13.869 210.925 15.1325 210.925 16.5413C210.925 18.1291 210.5 19.5491 209.65 20.8014C208.8 22.0313 207.57 22.9258 205.96 23.4849L211.663 33.8834H206.597L201.298 24.0216H197.373V33.8834H192.811ZM202.404 13.0192H197.373V20.2982H202.404C203.679 20.2982 204.652 19.9404 205.323 19.2248C205.994 18.4869 206.329 17.6259 206.329 16.642C206.329 15.658 205.994 14.8082 205.323 14.0926C204.652 13.377 203.679 13.0192 202.404 13.0192Z" fill="#1E1E1E"/>
<path d="M172.558 33.8834V9.0611H189.195V13.0192H177.12V19.3255H187.686V23.183H177.12V29.9252H189.363V33.8834H172.558Z" fill="#1E1E1E"/>
<path d="M148.636 33.8834V9.0611H152.795L164.2 25.9V9.0611H168.728V33.8834H164.569L153.164 17.3464V33.8834H148.636Z" fill="#1E1E1E"/>
<path d="M133.2 33.8834V25.2627L124.478 9.0611H129.443L135.447 20.6337L141.452 9.0611H146.45L137.728 25.2627V33.8834H133.2Z" fill="#1E1E1E"/>
<path d="M115.022 34.2188C113.479 34.2188 112.159 34.0287 111.063 33.6486C109.968 33.2684 109.051 32.7765 108.313 32.1727C107.597 31.5689 107.027 30.9316 106.602 30.2607C106.177 29.5674 105.853 28.9189 105.629 28.3152C105.428 27.7114 105.294 27.2194 105.227 26.8392C105.16 26.4591 105.126 26.269 105.126 26.269H109.755C109.755 26.269 109.778 26.4032 109.822 26.6715C109.889 26.9399 110.024 27.2865 110.225 27.7114C110.426 28.1139 110.717 28.5164 111.097 28.9189C111.499 29.3215 112.025 29.6681 112.673 29.9588C113.344 30.2271 114.172 30.3613 115.156 30.3613C116.676 30.3613 117.828 30.0259 118.611 29.355C119.416 28.6618 119.818 27.812 119.818 26.8057C119.818 25.9559 119.516 25.285 118.913 24.7931C118.309 24.2787 117.414 23.8986 116.229 23.6526L112.942 22.9482C111.667 22.6798 110.471 22.2773 109.353 21.7406C108.257 21.2039 107.374 20.4771 106.703 19.5603C106.032 18.6434 105.696 17.4694 105.696 16.0382C105.696 14.5399 106.065 13.2429 106.803 12.1471C107.564 11.0514 108.604 10.2128 109.923 9.63135C111.242 9.02756 112.785 8.72567 114.552 8.72567C116.229 8.72567 117.616 8.97165 118.711 9.46363C119.807 9.9556 120.679 10.5594 121.328 11.275C121.999 11.9906 122.491 12.7062 122.804 13.4218C123.117 14.1374 123.318 14.7412 123.407 15.2331C123.519 15.7251 123.575 15.9711 123.575 15.9711H119.114C119.114 15.9711 119.069 15.8034 118.98 15.4679C118.89 15.1101 118.689 14.7076 118.376 14.2604C118.063 13.8131 117.593 13.4218 116.967 13.0863C116.341 12.7285 115.502 12.5496 114.451 12.5496C112.953 12.5496 111.857 12.8851 111.164 13.556C110.493 14.2268 110.158 14.9536 110.158 15.7363C110.158 16.5413 110.471 17.1675 111.097 17.6147C111.723 18.062 112.562 18.4086 113.613 18.6546L117.135 19.3925C118.454 19.6833 119.662 20.1193 120.757 20.7007C121.853 21.2822 122.725 22.0537 123.374 23.0153C124.022 23.9545 124.347 25.1285 124.347 26.5373C124.347 27.9685 123.989 29.2656 123.273 30.4284C122.558 31.5912 121.507 32.5193 120.12 33.2125C118.734 33.8834 117.034 34.2188 115.022 34.2188Z" fill="#1E1E1E"/>
</svg>
